<svg width="180" height="180" viewBox="0 0 180 180" fill="none" xmlns="http://www.w3.org/2000/svg">
  <rect width="180" height="180" fill="#073B76" />
  <path
    d="M90 151.5L36.8 97.5C30.4 90.7 26.6 81.6 26.6 71.5C26.6 50.8 43.4 34 64.1 34C74.6 34 84 38.3 90 45.2C96 38.3 105.4 34 115.9 34C136.6 34 153.4 50.8 153.4 71.5C153.4 81.6 149.6 90.7 143.2 97.5L90 151.5Z"
    fill="#EEF3FA"
  />
  <path
    d="M90 138L47.8 95.1C42.8 89.7 39.9 82.6 39.9 74.8C39.9 58.9 52.8 46 68.7 46C76.8 46 84 49.3 88.6 54.6L90 56.3L91.4 54.6C96 49.3 103.2 46 111.3 46C127.2 46 140.1 58.9 140.1 74.8C140.1 82.6 137.2 89.7 132.2 95.1L90 138Z"
    fill="#0E5CA9"
  />
  <path
    d="M90 113.6C76 113.6 64.6 124.9 64.6 138.9V140.5H115.4V138.9C115.4 124.9 104 113.6 90 113.6Z"
    fill="#12B6C8"
  />
  <rect x="76.8" y="86.6" width="26.4" height="34.6" rx="13.2" fill="#12B6C8" />
</svg>